<svg width="90" height="88" viewBox="0 0 90 88" fill="none" xmlns="http://www.w3.org/2000/svg">
<path d="M29.0325 5.39349C30.4854 0.926997 36.0746 -0.570637 39.566 2.57106L43.07 5.72405C45.3486 7.77438 48.7612 7.94901 51.2466 6.14247L55.0688 3.36438C58.8773 0.596253 64.2757 2.65617 65.2426 7.24649L66.213 11.8533C66.8441 14.8491 69.4977 16.9891 72.5711 16.981L77.2975 16.9685C82.0069 16.9561 85.1524 21.7868 83.2256 26.0724L81.2918 30.3734C80.0343 33.1703 80.9153 36.4584 83.4028 38.2518L87.228 41.0097C91.0395 43.7577 90.7307 49.5139 86.646 51.8579L82.5467 54.2102C79.8809 55.7399 78.6529 58.9201 79.6042 61.83L81.0672 66.3048C82.525 70.7636 78.8798 75.2468 74.1975 74.7537L69.4984 74.2589C66.4426 73.9372 63.5746 75.7947 62.6264 78.7096L61.1684 83.1922C59.7156 87.6587 54.1263 89.1563 50.6349 86.0146L47.1309 82.8616C44.8524 80.8113 41.4398 80.6367 38.9543 82.4432L35.1321 85.2213C31.3237 87.9894 25.9253 85.9295 24.9583 81.3392L23.9879 76.7323C23.3569 73.7366 20.7033 71.5965 17.6298 71.6046L12.9035 71.6171C8.19405 71.6296 5.0485 66.7989 6.97537 62.5133L8.90917 58.2123C10.1667 55.4154 9.28563 52.1273 6.79816 50.3339L2.97293 47.576C-0.838587 44.828 -0.529782 39.0717 3.5549 36.7278L7.65428 34.3755C10.32 32.8458 11.5481 29.6656 10.5967 26.7557L9.1337 22.2808C7.67594 17.822 11.3211 13.3389 16.0034 13.8319L20.7026 14.3267C23.7583 14.6485 26.6264 12.791 27.5745 9.87606L29.0325 5.39349Z" fill="#EBF7ED"/>
</svg>
